<svg width="15" height="20" viewBox="0 0 15 20" fill="none" xmlns="http://www.w3.org/2000/svg">
<path d="M13.125 4.61538H8.10938V13.2644L10.3547 10.9952C10.5937 10.7548 10.9781 10.7548 11.2172 11C11.4516 11.2452 11.4516 11.6394 11.2125 11.8846L7.93125 15.2019C7.81406 15.3173 7.65938 15.3798 7.50469 15.3798C7.425 15.3798 7.34531 15.3654 7.27031 15.3317C7.2 15.3029 7.13438 15.2548 7.07812 15.2019L3.79688 11.8846C3.55781 11.6442 3.55312 11.2452 3.79219 11C4.02656 10.7548 4.41563 10.75 4.65469 10.9952L6.9 13.2644V4.61538H1.875C0.84375 4.61538 0 5.48077 0 6.53846V18.0769C0 19.1346 0.84375 20 1.875 20H13.125C14.1562 20 15 19.1346 15 18.0769V6.53846C15 5.48077 14.1562 4.61538 13.125 4.61538ZM8.10938 0.625C8.10938 0.278846 7.8375 0 7.5 0C7.1625 0 6.89062 0.278846 6.89062 0.625V4.61538H8.10938V0.625Z" fill="white"/>
</svg>
